<svg width="640" height="640" viewBox="0 0 640 640" fill="none" xmlns="http://www.w3.org/2000/svg">
  <rect width="640" height="640" fill="#FCFCF8"/>
  <g stroke="#111111" stroke-width="10" stroke-linecap="round" stroke-linejoin="round">
    <ellipse cx="318" cy="332" rx="172" ry="126" fill="#FCFCF8"/>
    <path d="M450 264C491 230 540 230 577 266C541 286 515 318 505 356C495 395 501 434 521 467C480 467 444 435 430 391"/>
    <path d="M232 232L188 176L166 252"/>
    <path d="M328 210L381 150L404 234"/>
    <path d="M214 410L167 451"/>
    <path d="M278 446L248 508"/>
    <path d="M361 447L390 509"/>
    <path d="M425 410L470 450"/>
    <ellipse cx="246" cy="316" rx="28" ry="36" fill="#111111"/>
    <ellipse cx="347" cy="316" rx="28" ry="36" fill="#111111"/>
    <circle cx="255" cy="305" r="7" fill="#FCFCF8" stroke="none"/>
    <circle cx="356" cy="305" r="7" fill="#FCFCF8" stroke="none"/>
    <ellipse cx="203" cy="380" rx="34" ry="22" fill="#F0F0EC"/>
    <ellipse cx="402" cy="380" rx="34" ry="22" fill="#F0F0EC"/>
    <ellipse cx="292" cy="365" rx="54" ry="42" fill="#FCFCF8"/>
    <ellipse cx="274" cy="365" rx="8" ry="12" fill="#111111" stroke="none"/>
    <ellipse cx="310" cy="365" rx="8" ry="12" fill="#111111" stroke="none"/>
    <path d="M285 395C300 407 320 407 336 395"/>
    <path d="M484 323C512 328 534 346 548 373"/>
    <path d="M484 354C516 360 542 380 559 410"/>
    <path d="M474 293C504 292 528 302 549 320"/>
    <path d="M174 329L139 315"/>
    <path d="M174 356L139 370"/>
    <path d="M173 288L139 272"/>
    <path d="M306 236C324 228 344 228 362 236"/>
    <path d="M252 253C269 246 286 243 304 243"/>
    <path d="M144 511H494"/>
    <path d="M525 512H560"/>
  </g>
</svg>
